<svg width="32" height="32" viewBox="0 0 32 32" fill="none" xmlns="http://www.w3.org/2000/svg">
<circle cx="16" cy="16" r="16" fill="white"/>
<g clip-path="url(#clip0)">
<path d="M16 7.55556C20.6563 7.55556 24.4445 11.3437 24.4445 16C24.4445 20.6563 20.6563 24.4444 16 24.4444C11.3438 24.4444 7.55559 20.6563 7.55559 16C7.55559 11.3437 11.3438 7.55556 16 7.55556ZM16 5.86667C10.4039 5.86667 5.8667 10.4039 5.8667 16C5.8667 21.5961 10.4039 26.1333 16 26.1333C21.5962 26.1333 26.1334 21.5961 26.1334 16C26.1334 10.4039 21.5962 5.86667 16 5.86667ZM16 17.2295C16.6418 17.2295 17.1628 16.7195 17.1628 16.0887C17.1628 15.4587 16.6418 14.9478 16 14.9478C15.3583 14.9478 14.8372 15.4587 14.8372 16.0887C14.8372 16.7195 15.3583 17.2295 16 17.2295ZM17.0666 14.2765L18.5367 11.7778C20.028 12.6239 21.0338 14.1954 21.0667 16H18.1019C18.0706 15.2628 17.6644 14.6295 17.0666 14.2765V14.2765ZM17.0666 17.9017L18.5367 20.4004C17.7911 20.8243 16.9239 21.0667 16 21.0667C15.0762 21.0667 14.209 20.8243 13.4633 20.4004L14.9335 17.9017C15.2476 18.0866 15.6091 18.2006 16 18.2006C16.391 18.2006 16.7524 18.0875 17.0666 17.9017ZM13.8982 16H10.9334C10.9663 14.1954 11.972 12.6239 13.4633 11.7778L14.9335 14.2765C14.3356 14.6295 13.9295 15.2636 13.8982 16Z" fill="#868E96"/>
</g>
<defs>
<clipPath id="clip0">
<rect width="20.2667" height="20.2667" fill="white" transform="translate(5.8667 5.86667)"/>
</clipPath>
</defs>
</svg>
